<?xml version="1.0" standalone="no"?>
<!DOCTYPE svg PUBLIC "-//W3C//DTD SVG 20010904//EN"
 "http://www.w3.org/TR/2001/REC-SVG-20010904/DTD/svg10.dtd">
<svg version="1.0" xmlns="http://www.w3.org/2000/svg"
 width="1024.000000pt" height="1024.000000pt" viewBox="0 0 1024.000000 1024.000000"
 preserveAspectRatio="xMidYMid meet">
<metadata>
Created by potrace 1.16, written by Peter Selinger 2001-2019
</metadata>
<g transform="translate(0.000000,1024.000000) scale(0.100000,-0.100000)"
fill="#000000" stroke="none">
<path d="M5740 9405 c-14 -17 -34 -20 -24 -4 5 8 1 8 -12 0 -33 -19 -49 -35
-62 -65 -7 -16 -15 -26 -18 -23 -3 3 0 15 6 27 l11 21 -198 -6 c-240 -8 -252
-8 -247 -16 2 -4 -6 -9 -19 -13 -33 -9 -45 -6 -22 5 17 8 17 9 -5 4 -14 -2
-38 -5 -55 -6 -26 0 -27 -2 -10 -9 15 -6 6 -9 -35 -11 -49 -1 -51 -2 -20 -8
l35 -7 -45 -8 c-30 -6 -45 -5 -48 3 -7 20 -19 12 -17 -11 1 -16 7 -22 20 -20
11 2 15 -1 9 -9 -5 -9 -2 -10 9 -6 10 4 16 2 14 -6 -1 -7 6 -11 15 -11 10 1
15 -2 12 -7 -3 -5 1 -9 9 -9 8 0 20 -7 28 -16 7 -8 21 -13 30 -11 10 3 17 0
16 -6 -1 -6 12 -14 28 -17 l30 -7 -35 -5 c-32 -4 -31 -5 12 -6 64 -3 73 -22
11 -24 l-48 -1 60 -7 60 -7 -70 -1 c-38 -1 -98 5 -132 12 -73 16 -196 72 -267
123 -35 25 -45 29 -31 13 17 -20 17 -22 3 -17 -12 4 -15 2 -11 -9 3 -7 2 -14
-2 -14 -12 0 -50 23 -60 37 -8 11 -17 12 -35 4 -14 -5 -18 -10 -10 -11 8 0 37
-20 64 -44 47 -42 48 -42 19 -40 -35 2 -71 23 -77 44 -2 8 -4 -4 -5 -27 -1
-49 -10 -75 -22 -67 -8 5 -115 34 -125 34 -3 0 -4 -17 -2 -37 2 -29 7 -38 21
-37 9 1 17 -4 17 -12 0 -10 12 -14 39 -14 66 0 71 -11 71 -175 0 -85 -4 -146
-10 -150 -5 -3 -20 1 -32 9 -18 13 -19 16 -5 16 9 0 17 -4 17 -10 0 -5 5 -10
11 -10 7 0 9 22 7 63 -3 48 -7 61 -18 58 -8 -1 -25 -4 -36 -5 -15 -1 -20 -6
-16 -16 5 -13 3 -13 -11 -1 -11 9 -28 11 -51 7 -21 -4 -37 -2 -41 4 -4 6 -13
9 -20 6 -17 -6 -11 114 7 125 9 6 9 11 0 22 -7 7 -9 16 -6 19 12 12 4 153 -10
183 -8 16 -19 41 -25 55 -9 19 -10 -1 -7 -93 4 -112 2 -137 -6 -93 -1 11 -12
29 -23 41 -75 82 -120 136 -144 177 l-27 48 1 -65 c2 -66 -8 -78 -20 -25 -4
17 -13 30 -20 30 -7 0 -15 7 -17 16 -2 11 -12 3 -33 -25 -16 -23 -55 -60 -85
-83 -54 -40 -53 -40 19 31 40 40 70 75 66 79 -4 4 -10 1 -12 -6 -3 -7 -18 -19
-34 -28 -16 -8 -27 -19 -24 -24 3 -5 0 -12 -6 -16 -8 -4 -9 -3 -5 4 11 18 -8
14 -35 -7 -86 -67 -347 -230 -467 -292 -121 -63 -158 -87 -235 -159 -121 -112
-226 -184 -210 -144 3 7 9 14 15 14 5 0 6 4 3 10 -3 5 0 7 7 5 8 -3 78 48 158
115 80 66 151 120 158 120 6 0 12 4 12 9 0 5 25 28 55 51 40 31 55 49 55 67 0
21 -3 23 -22 17 -13 -5 -35 -8 -50 -9 -16 0 -28 -3 -28 -6 0 -3 -37 -20 -83
-38 -68 -26 -93 -42 -144 -94 -90 -91 -88 -87 -111 -152 -11 -33 -32 -86 -46
-117 -14 -32 -21 -58 -16 -58 7 0 7 -6 1 -19 -16 -29 5 -33 189 -39 170 -6
173 -19 5 -23 -77 -2 -78 -2 -30 -9 100 -16 250 -10 360 15 29 6 29 6 10 -10
-45 -36 -148 -56 -297 -57 -135 0 -148 1 -237 31 -101 34 -165 67 -156 82 4 5
0 6 -8 3 -7 -2 -24 4 -37 14 -18 15 -20 19 -7 19 10 0 17 -4 17 -8 0 -9 20 -6
38 5 7 4 19 3 26 -3 18 -15 29 -1 13 17 -10 13 -9 14 2 7 11 -7 13 0 8 34 -3
24 -7 45 -10 47 -3 3 -23 -5 -46 -17 -60 -31 -60 -18 -1 16 44 26 53 37 77 97
14 38 38 81 53 96 51 51 80 72 95 66 10 -4 15 0 15 10 0 9 7 16 16 16 10 0 14
5 10 16 -3 8 -2 13 3 9 13 -8 62 13 77 33 21 27 16 38 -6 14 -12 -12 -24 -22
-27 -22 -3 0 1 8 10 18 22 24 21 38 -1 48 -22 10 -72 11 -72 2 0 -4 -7 -4 -17
-1 -11 5 -14 3 -8 -6 5 -10 2 -11 -14 -6 -11 3 -21 2 -21 -3 0 -5 -11 -14 -25
-20 -36 -16 -42 -15 -19 4 18 14 18 15 -3 4 -13 -6 -23 -16 -23 -23 0 -7 -13
-21 -28 -31 l-27 -19 25 28 25 28 -27 -19 c-15 -10 -28 -21 -28 -24 0 -3 -27
-34 -59 -69 -59 -63 -59 -63 -72 -40 -27 50 -19 78 39 141 73 78 74 92 6 82
-21 -3 -44 -6 -51 -7 -7 0 -10 -3 -8 -7 2 -4 -12 -22 -32 -41 -29 -28 -33 -29
-23 -10 8 16 8 21 1 16 -6 -3 -23 -30 -38 -58 -33 -63 -45 -40 -13 25 12 24
30 63 40 88 18 45 18 46 -1 47 -21 2 -34 -13 -19 -22 5 -3 10 -11 10 -18 0 -8
-3 -8 -12 1 -9 9 -16 8 -31 -6 -19 -16 -20 -16 -8 5 18 36 13 36 -19 0 -16
-19 -39 -60 -51 -91 -12 -31 -24 -54 -27 -51 -3 3 -5 27 -4 53 2 34 0 43 -8
32 -8 -12 -10 -10 -10 10 0 18 -3 21 -9 12 -6 -10 -10 -9 -14 8 -7 26 6 71 34
118 20 35 42 92 34 92 -8 0 -75 -130 -75 -147 0 -10 -4 -24 -9 -32 -6 -10 -8
0 -5 29 2 25 25 85 54 144 35 69 43 92 26 72 -33 -39 -85 -148 -96 -199 -4
-23 -20 -69 -34 -102 -20 -46 -26 -77 -26 -134 0 -41 -3 -71 -6 -68 -4 3 -7
46 -7 94 0 61 -2 76 -7 48 l-6 -40 -7 45 c-3 25 -9 68 -13 95 -4 28 -9 41 -12
31 -2 -11 -10 -26 -18 -33 -11 -11 -16 -10 -34 9 l-22 23 4 -47 c1 -25 -1 -44
-5 -41 -10 6 3 -48 16 -64 5 -7 6 -13 2 -13 -4 0 -14 8 -22 18 -12 15 -13 14
-8 -13 5 -28 5 -29 -6 -7 -7 12 -16 22 -21 22 -5 0 -20 11 -33 24 l-24 24 -6
-28 c-9 -41 10 -72 39 -64 16 4 25 0 30 -11 3 -9 9 -14 13 -12 5 2 19 -9 33
-26 l24 -30 -29 17 c-24 15 -22 11 9 -17 22 -19 45 -33 51 -31 7 3 18 -3 26
-13 13 -16 12 -17 -2 -5 -9 7 -21 12 -25 10 -10 -3 -59 27 -92 56 -12 11 -22
15 -22 9 0 -12 37 -47 68 -62 12 -6 22 -16 22 -22 0 -6 -7 -6 -19 1 -31 16
-38 11 -12 -10 l23 -20 -23 0 c-17 0 -10 -7 28 -24 53 -25 113 -65 113 -76 0
-3 -33 -12 -72 -19 -51 -9 -94 -25 -142 -53 l-68 -40 31 -15 31 -16 -42 -20
c-70 -34 -180 -152 -224 -242 -37 -75 -39 -84 -39 -174 0 -87 3 -102 30 -155
24 -48 40 -64 81 -87 115 -65 304 -88 406 -49 29 11 55 20 58 20 11 -1 -57
-34 -95 -46 l-40 -13 55 5 c30 3 72 14 92 24 45 21 40 7 -5 -17 -36 -19 -147
-23 -307 -11 -74 6 -90 5 -70 -4 16 -7 97 -12 216 -12 155 -1 194 2 209 14 16
13 15 10 -3 -26 l-21 -41 42 14 c23 8 58 17 77 19 19 2 43 7 53 10 11 3 29 7
40 9 12 1 36 6 52 10 29 7 29 7 10 -8 -17 -14 -18 -16 -3 -17 9 0 20 5 23 10
3 6 14 10 23 10 13 0 14 -2 4 -9 -11 -7 -10 -10 3 -15 23 -9 27 -8 19 5 -4 8
0 9 15 4 33 -10 25 4 -10 19 l-31 13 26 7 c26 6 74 -19 101 -52 5 -7 20 -14
33 -17 20 -3 22 0 23 38 1 32 4 25 10 -27 5 -49 19 -92 46 -145 21 -42 37 -82
36 -89 0 -8 5 -11 13 -8 8 3 20 -7 30 -25 8 -17 11 -28 5 -25 -16 10 -13 -7 4
-30 11 -14 14 -15 9 -3 -3 10 -1 20 4 23 5 3 8 -9 5 -28 -2 -23 2 -38 14 -47
14 -12 16 -12 11 2 -5 12 3 16 36 18 22 1 43 6 44 12 5 14 23 11 44 -7 14 -14
20 -14 33 -4 9 7 18 10 22 6 3 -3 1 -6 -5 -6 -7 0 -12 -4 -12 -10 0 -5 23 -10
51 -10 31 0 48 -4 44 -10 -4 -6 10 -10 34 -10 49 0 62 -16 24 -30 -15 -6 -37
-15 -48 -20 -17 -9 -15 -9 10 -5 91 17 227 31 231 23 3 -4 -16 -8 -43 -8 -55
-1 -138 -21 -154 -37 -8 -8 -5 -13 12 -19 24 -8 23 -8 -6 -15 -22 -6 -13 -7
31 -6 43 1 61 -2 61 -10 0 -8 -15 -13 -40 -13 -67 0 -36 -10 36 -11 43 -1 71
-6 78 -15 6 -8 8 -14 3 -15 -19 -1 32 -18 58 -18 14 -1 29 -7 32 -13 4 -7 4
-3 2 9 -2 13 0 26 5 29 5 3 9 17 10 32 0 16 6 5 13 -28 6 -30 26 -80 44 -111
33 -58 44 -99 17 -63 -14 18 -14 18 -15 -10 l0 -29 -107 7 c-60 4 -202 19
-318 33 -215 26 -365 31 -722 25 -171 -3 -233 -13 -291 -47 -15 -9 -49 -24
-77 -34 l-50 -19 0 -134 c1 -167 27 -324 56 -331 16 -4 19 -15 19 -59 1 -114
71 -340 122 -392 17 -16 22 -26 12 -22 -12 5 -14 3 -7 -6 5 -7 10 -29 12 -48
1 -19 10 -60 19 -90 9 -30 16 -65 17 -76 0 -12 7 -29 14 -38 7 -9 -13 0 -44
19 -32 19 -74 38 -93 41 -29 6 -38 2 -65 -24 l-30 -31 24 -5 c13 -2 66 -12
117 -22 71 -13 97 -22 109 -38 19 -25 17 -26 93 45 l42 39 -7 82 c-3 46 -15
100 -25 121 l-18 38 35 14 c20 8 39 15 42 15 23 0 64 64 77 120 20 85 40 118
69 112 16 -3 28 3 38 20 18 27 37 143 37 225 0 41 3 54 10 43 5 -8 10 -29 10
-46 0 -19 6 -34 15 -38 8 -3 15 -1 15 4 0 6 19 9 43 9 l42 -2 -35 -6 c-19 -3
52 -6 158 -7 130 0 192 3 192 10 0 21 20 -19 20 -41 0 -17 -5 -21 -20 -18 -11
2 -18 0 -15 -6 4 -5 -27 -10 -77 -10 l-83 -2 55 -9 c30 -5 64 -14 75 -18 31
-13 385 -18 385 -6 1 28 20 -23 20 -51 l0 -33 -297 -1 c-176 -1 -270 -5 -231
-9 38 -3 71 -10 75 -14 5 -4 -10 -5 -32 -1 -28 5 -37 4 -30 -3 6 -7 109 -13
271 -17 l262 -5 27 45 c14 25 35 51 46 58 16 10 19 23 19 82 0 49 3 66 10 55
9 -13 11 -13 21 0 8 12 10 10 6 -10 -3 -14 -2 -34 2 -44 7 -18 8 -18 24 5 l17
23 0 -22 c0 -13 4 -21 9 -17 6 3 8 -47 6 -124 -2 -97 -7 -136 -20 -158 -9 -15
-13 -19 -8 -8 12 30 16 275 5 275 -14 0 -22 -26 -22 -75 0 -24 -5 -47 -11 -51
-8 -4 -7 -9 2 -15 12 -8 11 -11 -1 -19 -10 -6 -11 -10 -2 -10 6 0 12 -4 12
-10 0 -5 -3 -9 -7 -9 -25 4 -43 -3 -43 -16 0 -16 -3 -17 -70 -17 l-45 0 35 -8
c34 -9 34 -9 -5 -4 -22 3 -89 6 -150 5 -77 0 -103 3 -85 9 17 6 -23 8 -117 7
-136 -2 -173 -9 -144 -26 10 -6 10 -10 2 -16 -8 -5 -5 -13 10 -26 20 -17 42
-18 335 -19 191 0 314 4 314 10 0 5 13 25 30 43 16 19 26 37 22 41 -4 4 -2 6
4 4 14 -4 172 140 180 166 4 11 10 73 14 136 l7 115 1 -119 c2 -114 1 -122
-24 -157 -14 -20 -63 -71 -109 -113 -46 -42 -94 -95 -106 -116 -13 -22 -27
-39 -33 -39 -6 1 -141 0 -301 -2 -268 -2 -276 -9 -22 -18 26 -1 37 -6 37 -16
0 -13 -24 -15 -155 -15 -172 0 -156 7 -168 -71 l-4 -26 263 -6 c234 -5 267 -8
308 -26 25 -11 46 -22 46 -25 0 -3 -17 2 -37 11 -41 17 -64 18 -428 13 -121
-2 -191 -5 -155 -7 36 -2 70 -9 75 -15 7 -7 0 -8 -22 -3 -21 4 -33 3 -33 -4 0
-6 6 -11 13 -11 8 0 7 -4 -3 -10 -8 -5 -10 -10 -5 -10 9 -1 -63 -40 -72 -40
-2 0 -2 4 2 9 3 5 0 13 -7 17 -7 4 -10 4 -6 -1 4 -4 3 -17 -3 -28 -8 -14 -8
-18 0 -13 10 7 16 -14 12 -38 -1 -5 6 -6 15 -2 12 4 15 2 10 -9 -3 -8 -2 -15
2 -15 5 0 14 -16 21 -35 7 -19 16 -33 21 -30 5 3 7 12 3 20 -3 10 1 15 13 15
11 0 15 -3 9 -8 -10 -6 -12 -21 -6 -47 1 -5 7 1 12 14 13 33 20 22 10 -15 -5
-16 -13 -28 -19 -27 -6 2 -9 -4 -6 -11 8 -20 26 -11 47 22 10 17 17 21 17 11
0 -8 -15 -35 -32 -60 l-33 -44 42 35 c24 19 43 43 43 53 0 10 8 17 21 17 11 0
17 -5 14 -10 -4 -6 -11 -7 -17 -4 -6 4 -8 3 -5 -3 4 -6 0 -19 -8 -29 -20 -27
-18 -40 3 -21 10 10 22 17 26 17 5 0 -25 -33 -66 -72 -78 -78 -114 -124 -112
-145 1 -7 -2 -11 -6 -8 -4 2 -22 -16 -39 -40 -18 -25 -36 -45 -42 -45 -14 0
-11 -28 4 -33 6 -2 9 -8 4 -12 -4 -5 -13 -3 -19 3 -7 7 -16 12 -21 12 -5 0 -2
-7 7 -15 21 -22 10 -47 -18 -39 -16 5 -10 -6 24 -43 25 -27 52 -58 60 -69 8
-11 22 -28 30 -39 15 -18 14 -18 -15 1 -16 10 -35 26 -42 34 -11 13 -12 13
-13 0 0 -13 -1 -13 -10 0 -5 8 -10 11 -10 6 0 -5 -7 -3 -15 4 -8 7 -14 15 -12
19 1 3 -20 29 -46 56 -27 28 -46 44 -42 38 3 -7 1 -13 -6 -13 -8 0 -8 -5 2
-17 11 -15 10 -14 -9 1 -12 11 -22 27 -22 36 0 21 -24 43 -35 32 -5 -4 -5 -1
-1 5 4 8 -10 32 -36 60 -118 129 -141 152 -148 148 -4 -3 -11 7 -14 21 -5 17
-12 24 -21 20 -8 -3 -15 -1 -15 4 0 6 5 10 12 10 6 0 9 2 6 5 -3 3 -17 1 -32
-5 -26 -9 -26 -9 -11 14 27 41 -7 43 -54 2 -25 -22 -20 -6 8 28 12 14 13 20 4
23 -7 3 -13 11 -13 19 0 9 -4 13 -9 9 -5 -3 -13 0 -16 6 -4 5 -13 8 -21 5 -8
-3 -14 -1 -14 5 0 6 9 13 20 16 19 5 19 6 -4 24 -13 11 -28 19 -33 19 -4 0 -1
-5 7 -10 12 -8 10 -10 -10 -8 -19 2 -28 -5 -41 -32 -30 -61 -53 -172 -44 -216
l8 -39 7 30 c6 27 7 25 14 -23 4 -28 12 -49 17 -46 5 3 9 0 9 -6 0 -6 4 -8 10
-5 6 3 7 -1 4 -10 -4 -9 -2 -15 3 -13 5 2 20 -8 34 -22 13 -14 21 -21 16 -16
-4 6 -7 17 -7 25 0 10 6 7 17 -9 10 -14 31 -36 48 -50 16 -14 48 -45 71 -69
58 -62 95 -181 99 -318 2 -70 1 -81 -4 -39 -3 34 -11 61 -18 64 -7 2 -13 -2
-13 -9 0 -7 -3 -9 -7 -6 -3 4 -12 2 -20 -4 -10 -9 -13 -6 -13 17 -1 28 -2 27
-26 -16 -21 -38 -24 -29 -7 18 9 22 -17 13 -28 -10 -9 -22 -9 -21 -4 3 3 20 0
28 -13 31 -21 6 -42 -1 -42 -13 0 -5 -16 -33 -36 -61 -58 -85 -100 -168 -129
-253 -15 -44 -33 -94 -41 -111 -28 -65 -42 -138 -34 -188 4 -27 4 -65 -1 -85
-7 -32 -6 -34 6 -18 12 17 14 14 20 -30 6 -41 53 -138 75 -153 4 -3 15 -22 24
-42 21 -43 55 -79 111 -118 43 -29 184 -58 223 -46 12 4 26 0 37 -10 14 -14
18 -15 25 -4 7 12 13 11 31 -5 20 -18 22 -18 16 -2 -8 20 22 24 41 5 10 -10
15 -10 21 1 5 8 18 12 30 8 12 -3 21 -2 21 3 0 4 26 9 58 12 47 3 73 13 137
51 44 26 90 47 102 47 13 0 26 7 29 15 4 10 15 13 37 9 29 -5 30 -4 15 9 -10
8 -18 17 -18 21 0 3 8 6 18 6 9 0 37 12 61 26 25 13 51 22 59 19 8 -3 30 4 49
15 41 24 43 24 43 5 0 -21 13 -19 28 5 11 18 19 19 70 14 85 -9 136 -35 167
-84 59 -93 97 -173 129 -266 41 -123 66 -175 79 -167 6 3 7 1 3 -5 -4 -6 -2
-21 5 -33 9 -17 13 -19 19 -8 5 7 6 17 3 21 -2 5 1 15 7 23 7 8 9 15 6 15 -4
0 -1 7 8 15 8 9 21 14 28 13 8 -2 14 10 16 34 2 21 7 38 13 38 5 0 9 -5 9 -10
0 -12 -48 -213 -56 -233 -2 -7 21 -51 51 -97 50 -75 80 -116 62 -84 -4 6 5 26
18 44 30 40 29 37 10 37 -10 0 -14 -6 -10 -16 3 -8 3 -12 -1 -8 -5 4 -14 -3
-22 -15 -9 -15 -11 -17 -8 -5 8 23 -3 44 -14 27 -5 -8 -9 -7 -13 5 -4 9 -3 13
3 10 6 -3 10 -2 10 3 0 6 -7 12 -15 16 -19 7 -20 36 -1 36 8 0 16 -6 19 -14 9
-24 62 -29 99 -10 18 10 39 17 45 16 21 -4 14 97 -8 119 -15 15 -15 18 -2 23
8 3 23 6 34 6 10 0 19 7 19 15 0 9 -6 12 -17 9 -15 -5 -15 -4 -3 4 8 6 18 8
22 6 5 -3 11 3 15 13 8 22 53 93 70 111 25 26 14 -9 -12 -40 -14 -17 -23 -33
-21 -36 3 -3 15 6 26 19 19 23 19 22 -1 -14 -12 -22 -28 -41 -35 -44 -7 -2
-10 -12 -7 -20 5 -12 3 -14 -8 -8 -11 7 -12 6 -3 -6 7 -8 10 -29 9 -48 -2 -22
0 -29 6 -20 7 11 9 10 10 -6 1 -11 3 -33 5 -49 3 -26 2 -27 -10 -10 -13 17
-14 17 -25 -4 -6 -11 -11 -30 -11 -42 0 -13 -4 -19 -11 -14 -8 4 -8 1 0 -14 6
-12 11 -25 10 -29 -1 -4 -1 -25 0 -47 1 -32 3 -37 16 -26 8 6 19 9 25 5 5 -3
10 -1 10 5 0 6 4 8 10 5 13 -8 23 39 16 78 -3 17 -11 67 -18 110 -14 92 -6
115 66 196 49 55 51 58 36 81 -7 12 -16 13 -52 2 -24 -7 -74 -13 -113 -14
l-70 -2 -3 35 c-2 26 2 37 18 47 17 10 21 10 26 -3 4 -8 4 -21 1 -28 -6 -17
40 -40 50 -24 3 6 1 13 -5 15 -7 2 -12 9 -12 15 0 7 19 13 48 14 26 1 39 -1
30 -4 -29 -8 -9 -33 27 -33 l33 0 -21 53 c-12 28 -24 54 -27 57 -3 3 -19 34
-34 70 -16 36 -55 117 -88 180 -32 63 -57 119 -54 126 2 6 -1 17 -7 24 -9 10
-9 11 1 5 10 -5 13 -2 10 10 -1 10 -9 20 -17 23 -8 3 -11 0 -8 -5 4 -6 -4 -8
-21 -4 -24 5 -25 6 -5 9 17 3 21 9 17 30 -3 22 -2 24 6 10 8 -14 16 -15 35 -8
14 5 25 7 25 5 0 -3 19 16 41 40 23 25 45 42 49 40 5 -3 11 -1 14 4 4 6 98 10
221 11 118 0 243 3 277 6 35 3 59 2 55 -3 -5 -4 -124 -11 -265 -15 -274 -7
-284 -7 -276 -19 2 -4 -21 -30 -52 -57 l-56 -50 26 -40 c14 -22 22 -42 19 -45
-3 -3 4 -18 16 -33 11 -15 21 -23 21 -18 1 5 8 -3 16 -19 8 -15 12 -33 8 -40
-4 -6 -4 -9 1 -5 4 4 20 -18 35 -50 35 -75 51 -88 74 -63 10 11 18 25 20 33 3
23 25 55 26 38 0 -13 2 -13 9 0 6 8 7 18 5 22 -3 5 0 7 7 6 7 -2 13 3 14 10 0
6 5 12 10 13 6 0 19 8 30 18 57 49 52 37 -11 -30 -39 -41 -81 -88 -92 -106
-23 -33 -28 -78 -12 -103 8 -12 10 -11 10 6 0 17 10 24 45 34 25 7 47 11 49 9
3 -2 10 -60 16 -127 9 -94 17 -133 35 -163 l22 -40 -1 30 c-1 18 -6 31 -14 31
-8 0 -10 5 -5 13 4 6 6 47 4 90 -2 57 0 77 10 77 8 0 7 6 -5 19 -10 11 -16 31
-14 50 2 25 8 33 28 37 45 10 50 13 44 29 -7 17 14 75 26 75 4 0 4 -19 -1 -43
-12 -61 -11 -62 16 -63 14 -1 25 3 25 10 0 6 7 -2 15 -18 8 -15 15 -36 15 -46
0 -10 10 -21 23 -25 l22 -8 -22 -4 c-13 -2 -23 -9 -23 -14 0 -5 -5 -9 -11 -9
-5 0 -8 4 -5 9 7 11 -22 23 -35 15 -6 -3 -7 11 -3 35 4 25 3 41 -3 41 -14 0
-25 -128 -12 -151 6 -13 21 -19 44 -19 18 0 42 -3 52 -6 15 -5 15 -4 3 5 -12
8 -12 11 3 17 13 5 16 15 13 50 -7 69 30 52 76 -35 15 -27 15 -33 3 -37 -8 -4
-13 -10 -10 -14 3 -4 -3 -7 -13 -6 -9 0 -16 -5 -14 -12 1 -8 -2 -11 -7 -7 -6
3 -21 -1 -33 -9 -20 -12 -29 -12 -75 4 -48 15 -53 16 -57 1 -2 -9 -9 -37 -16
-64 -11 -43 -11 -50 6 -69 12 -14 14 -18 4 -13 -13 8 -13 6 -2 -7 8 -9 21 -14
30 -11 14 4 15 3 2 -6 -22 -15 -9 -21 32 -15 25 4 39 14 47 30 6 13 14 23 18
22 5 -1 19 4 33 11 l25 14 -19 -22 c-11 -12 -25 -20 -32 -17 -8 3 -11 0 -8 -8
3 -7 -10 -26 -29 -43 l-34 -30 34 -37 c19 -21 36 -36 38 -34 7 7 50 87 82 151
18 37 35 67 37 67 13 0 -73 -183 -105 -225 -9 -12 13 -45 30 -45 6 0 11 5 11
11 0 17 138 150 145 139 3 -6 -22 -42 -57 -80 -35 -39 -64 -75 -66 -80 -2 -6
14 -10 35 -10 25 0 33 -3 24 -9 -7 -5 -28 -5 -47 -1 -41 9 -52 1 -22 -18 13
-7 15 -11 6 -8 -12 3 -15 1 -11 -9 3 -8 9 -13 13 -10 4 3 10 -5 13 -16 4 -16
10 -19 28 -14 14 5 19 4 15 -4 -7 -10 7 -18 62 -35 21 -7 22 -4 24 46 l2 53 3
-48 4 -49 147 9 c81 4 193 8 250 8 l103 0 22 -34 c12 -19 15 -31 8 -27 -7 5
-100 11 -207 13 -169 4 -194 3 -194 -10 0 -20 40 -47 120 -80 67 -28 90 -33
90 -19 0 4 21 14 48 22 26 7 72 23 102 36 30 12 73 24 95 27 38 6 38 6 -12
-13 -209 -76 -578 -279 -820 -451 -24 -17 -43 -35 -43 -40 0 -5 -4 -9 -10 -9
-5 0 -42 -15 -82 -34 -40 -19 -95 -44 -123 -56 -80 -35 -38 -33 81 4 141 44
212 70 226 84 6 6 14 28 18 49 l8 38 1 -36 c1 -48 -13 -63 -91 -99 -81 -36
-241 -90 -268 -90 -11 0 -20 -5 -20 -11 0 -5 -5 -7 -12 -3 -11 7 -6 -71 9
-125 4 -15 2 -22 -4 -18 -8 5 -29 117 -25 138 0 3 -9 5 -21 4 -12 -1 -23 -9
-25 -18 -4 -20 -23 -22 -40 -5 -9 9 -13 7 -18 -5 -3 -9 -11 -14 -18 -10 -6 4
-5 -1 3 -10 8 -11 9 -17 3 -17 -6 0 -9 -7 -6 -15 4 -8 1 -15 -5 -15 -8 0 -7
-8 3 -22 9 -12 16 -31 16 -41 0 -10 4 -16 8 -13 4 2 6 -10 4 -29 -3 -29 -1
-34 20 -37 12 -2 22 -9 20 -16 -1 -6 1 -12 6 -12 18 0 157 42 184 56 16 9 32
13 35 11 8 -8 -106 -56 -209 -88 -54 -17 -98 -34 -98 -37 1 -20 20 -34 39 -29
12 3 19 1 15 -5 -3 -5 3 -4 15 4 16 10 23 10 33 0 9 -9 8 -12 -6 -12 -16 0
-15 -4 8 -25 14 -13 29 -38 32 -55 4 -16 11 -30 16 -30 6 0 8 -7 4 -15 -3 -9
0 -15 9 -15 8 0 15 -5 15 -11 0 -7 -10 -9 -25 -5 -14 4 -25 2 -25 -4 0 -5 6
-9 13 -8 7 2 11 -6 10 -17 -1 -19 -1 -19 11 -3 16 22 26 23 26 4 0 -8 -12 -24
-26 -35 -15 -12 -22 -21 -17 -21 6 0 22 9 36 20 14 11 28 20 32 20 5 0 33 21
63 47 88 77 122 99 61 42 -65 -63 -113 -105 -197 -174 -33 -27 -61 -54 -61
-59 -1 -5 7 -18 17 -29 17 -20 17 -20 -11 -2 l-28 18 -45 -44 c-68 -65 -127
-153 -177 -260 -24 -53 -61 -122 -82 -154 -53 -83 -269 -518 -296 -595 -34
-101 -38 -124 -21 -140 13 -11 14 -11 10 1 -2 7 5 22 18 31 25 21 38 23 28 6
-4 -7 -3 -8 4 -4 6 4 9 13 6 21 -7 16 14 58 25 51 4 -3 37 58 74 135 37 76 71
139 77 139 6 0 8 6 5 13 -4 6 3 1 15 -12 11 -13 17 -27 11 -30 -5 -3 -13 -24
-17 -46 -6 -32 -9 -36 -14 -20 -4 11 -3 21 1 23 5 2 9 8 9 13 0 6 -4 8 -9 5
-5 -4 -12 0 -14 6 -11 26 -7 -20 4 -51 9 -25 14 -29 24 -21 8 6 11 18 8 26 -3
8 0 14 6 14 6 0 11 10 11 23 0 18 2 19 10 7 5 -8 10 -13 11 -10 3 20 8 37 14
53 8 19 -5 23 -21 7 -7 -7 -15 -2 -24 14 -11 21 -11 28 0 41 17 20 40 19 39
-2 0 -11 -3 -13 -6 -5 -8 20 -18 14 -19 -13 -2 -20 1 -23 14 -16 11 6 20 4 29
-7 12 -15 13 -13 8 13 -4 22 -3 25 3 11 11 -24 25 -6 16 21 -4 13 -3 14 4 5 7
-10 13 -7 25 12 10 14 17 32 17 41 0 9 4 14 9 11 5 -3 16 9 25 27 9 17 30 48
47 67 31 35 30 22 -1 -15 -9 -11 -34 -49 -55 -85 -76 -131 -138 -220 -148
-213 -6 3 -7 1 -3 -5 9 -15 -24 -73 -37 -65 -6 3 -7 1 -4 -4 4 -6 -9 -41 -28
-78 -19 -37 -33 -70 -32 -74 1 -3 -22 -52 -50 -108 -51 -100 -110 -269 -98
-281 9 -9 59 -8 66 1 3 4 16 10 30 12 37 7 66 48 79 112 6 32 14 65 17 73 4 8
7 18 7 22 1 3 4 10 9 14 4 4 7 -15 8 -42 l0 -49 19 40 c25 54 25 28 0 -37 -11
-29 -23 -74 -26 -99 l-6 -46 53 -7 c73 -10 71 -10 98 -2 16 6 21 5 17 -3 -4
-7 6 -9 29 -7 26 2 36 -2 41 -16 3 -10 9 -18 14 -18 5 0 6 8 3 18 -6 15 -5 15
10 4 9 -8 22 -10 29 -6 8 5 6 -3 -5 -19 -9 -14 -17 -29 -17 -32 0 -2 772 -5
1715 -5 943 0 1715 4 1715 8 0 4 -5 13 -12 20 -9 9 -9 12 0 12 7 0 12 -4 12
-10 0 -20 19 -9 22 12 3 21 5 21 23 -10 l20 -33 79 2 c65 2 82 6 102 24 31 29
31 40 -1 19 -15 -10 -25 -12 -25 -5 0 6 6 11 14 11 7 0 18 15 24 33 7 17 10
22 8 10 -2 -13 0 -23 5 -23 20 0 -4 99 -61 242 -22 55 -37 105 -33 111 3 5 1
7 -4 4 -14 -9 -23 27 -14 59 6 24 11 19 61 -62 51 -85 83 -124 101 -124 24 0
49 37 49 73 0 33 2 38 19 32 18 -5 19 -2 14 32 -3 21 -7 40 -9 42 -2 2 1 10 8
18 8 10 8 17 0 25 -9 9 -12 7 -12 -7 0 -25 -6 -17 -14 20 -5 22 -4 26 4 15 5
-9 10 -10 10 -3 0 6 -17 24 -39 40 -89 66 -141 123 -111 123 5 0 7 6 4 14 -3
9 6 19 25 27 21 9 31 22 36 45 6 35 51 125 67 135 6 4 8 13 6 20 -3 8 4 32 15
54 26 50 37 131 24 170 -10 31 -103 175 -120 186 -5 4 -4 8 3 11 10 3 8 12 -5
37 -16 33 -16 34 6 55 21 19 21 19 7 1 -16 -20 -14 -45 3 -45 5 0 9 7 9 15 0
8 4 15 9 15 17 0 5 43 -33 120 -20 41 -35 83 -32 93 2 10 -4 23 -15 31 -13 9
-17 19 -12 31 5 14 3 17 -10 12 -9 -3 -17 -2 -17 3 0 6 5 10 10 10 14 0 1 49
-21 81 -31 44 -42 81 -27 91 10 5 8 8 -5 8 -10 0 -16 4 -12 9 3 6 -3 14 -12
20 -15 9 -16 12 -4 20 11 7 9 10 -8 16 -15 4 -21 15 -21 36 0 16 5 29 13 30 6
0 2 4 -10 9 -13 5 -23 15 -23 22 0 9 3 9 11 -2 8 -12 9 -11 7 5 -2 12 -11 19
-21 19 -15 -2 -22 14 -18 39 2 12 -29 101 -37 107 -4 3 -13 18 -20 33 -7 17
-17 25 -24 21 -7 -4 -8 -3 -4 5 4 6 -2 28 -13 47 -12 19 -21 41 -21 48 0 7
-10 23 -22 36 -13 14 -21 26 -19 28 4 4 -55 101 -147 242 -56 87 -192 230
-218 230 -8 0 -14 4 -14 8 0 5 -26 15 -57 22 -32 8 -71 20 -88 27 -29 12 -29
13 15 7 25 -4 63 -13 85 -20 21 -7 41 -12 42 -10 11 11 -62 69 -110 86 -31 12
-64 28 -72 36 -8 9 -15 12 -15 8 0 -4 -10 1 -22 12 -12 10 -18 14 -15 7 4 -6
3 -14 -2 -17 -5 -3 -12 1 -15 10 -5 13 -9 14 -20 5 -8 -7 -17 -8 -20 -3 -3 5
15 30 40 56 55 57 74 90 66 118 -5 20 -6 20 -18 3 -31 -43 -127 -145 -136
-145 -5 0 8 21 29 48 49 59 65 83 40 64 -14 -12 -16 -11 -12 7 2 12 6 25 9 30
7 11 -13 9 -31 -2 -8 -5 -13 -4 -13 2 0 6 -5 11 -11 11 -6 0 -9 -6 -6 -14 6
-16 -20 -43 -30 -32 -4 4 -1 12 7 17 13 9 13 10 0 6 -8 -2 -14 -14 -13 -26 4
-28 -9 -27 -36 6 -15 16 -18 24 -8 20 26 -10 94 31 111 68 20 40 20 45 2 45
-7 0 -16 9 -19 21 -5 17 -3 18 11 7 11 -9 10 -5 -3 13 -11 15 -23 25 -27 22
-5 -2 -8 3 -8 11 0 8 -9 20 -20 26 -11 6 -17 16 -14 22 5 7 2 8 -7 3 -22 -14
-48 -13 -42 2 4 9 9 10 18 3 8 -7 12 -6 12 4 0 8 -8 13 -18 11 -10 -2 -21 1
-25 6 -4 6 -10 6 -19 -1 -10 -8 -13 -6 -11 7 0 10 -5 17 -12 15 -8 -1 -11 2
-7 7 3 6 -4 15 -15 21 -11 6 -20 7 -20 3 0 -4 -7 1 -15 11 -8 11 -15 16 -15
12 0 -14 52 -76 60 -71 4 3 7 -1 7 -8 -1 -11 59 -147 83 -189 17 -30 12 -33
-63 -35 -62 -1 -90 -9 -197 -53 -199 -83 -301 -115 -520 -165 -113 -26 -225
-56 -249 -66 -52 -23 -67 -24 -28 -3 25 14 28 20 25 62 l-3 47 -210 5 c-249 7
-219 14 50 12 105 0 180 2 169 4 -17 4 -24 18 -34 65 -7 32 -18 59 -24 59 -6
0 -6 4 2 9 10 6 3 13 -25 27 l-38 19 130 5 130 6 -130 2 -130 2 -50 41 c-52
43 -61 59 -35 66 11 3 12 2 3 -4 -9 -6 -3 -16 20 -34 42 -33 62 -45 54 -32 -7
11 37 23 86 23 22 0 28 3 20 11 -14 14 -4 59 14 59 8 0 21 7 29 15 14 13 13
15 -3 16 -59 4 -170 -4 -180 -13 -7 -5 -17 -7 -23 -3 -5 3 -10 2 -10 -4 0 -5
3 -11 8 -14 4 -2 1 -2 -7 0 -19 5 -63 -41 -56 -59 4 -9 -1 -18 -11 -22 -14 -5
-15 -4 -4 9 25 30 -2 14 -36 -22 -19 -20 -37 -34 -40 -31 -3 3 13 41 35 84 28
54 33 70 18 51 -21 -25 -25 -26 -37 -12 -11 13 -10 15 2 10 9 -4 22 4 32 20 9
14 21 23 26 20 5 -3 7 4 5 16 -3 13 6 35 21 55 23 30 24 35 10 40 -11 4 -15
14 -11 28 5 20 5 20 -6 -1 -7 -12 -19 -24 -28 -26 -15 -4 -14 -5 0 -6 17 -1
36 -31 20 -31 -5 0 -11 4 -13 9 -3 9 -35 14 -73 12 -17 -1 -18 -3 -5 -12 12
-8 10 -9 -9 -4 -17 5 -22 4 -16 -5 5 -9 4 -11 -4 -6 -6 4 -9 12 -6 17 10 15
62 39 70 31 5 -4 5 -2 1 5 -9 17 -59 -2 -97 -38 l-31 -29 32 -42 c29 -39 28
-39 -16 9 l-49 52 -77 3 c-75 3 -93 -2 -65 -19 7 -4 30 -32 51 -61 44 -61 55
-59 81 18 12 38 13 40 8 10 -3 -19 -11 -47 -19 -61 -13 -26 -11 -29 67 -110
44 -46 89 -84 102 -86 17 -2 19 -1 7 6 -8 5 -18 7 -24 4 -5 -3 -6 -1 -2 5 5 8
13 9 25 2 10 -5 20 -8 23 -7 2 1 -8 -9 -22 -22 -14 -13 -20 -21 -15 -18 6 3
11 -6 11 -19 2 -33 -2 -30 -26 16 -12 23 -25 38 -30 35 -5 -3 -7 0 -5 8 8 20
-27 48 -45 37 -13 -8 -12 -10 3 -10 9 0 17 -5 17 -11 0 -6 -7 -8 -16 -5 -12 4
-15 2 -10 -9 3 -8 1 -15 -5 -15 -14 0 -5 50 12 61 8 5 12 9 9 10 -49 9 -50 9
-54 33 -1 9 -18 31 -37 49 -19 18 -53 59 -76 90 -30 39 -58 64 -95 83 -53 26
-108 70 -108 86 0 5 6 6 13 2 7 -4 9 -3 4 2 -5 5 -14 9 -20 9 -16 0 -57 83
-50 102 5 12 7 12 14 1 6 -9 9 -7 9 9 0 13 -5 22 -12 20 -8 -1 -14 11 -16 29
-3 29 0 32 35 37 21 4 89 7 151 7 l112 0 0 -44 c0 -59 8 -76 34 -75 20 0 20 1
1 9 -16 7 -17 9 -3 9 27 1 47 -10 42 -24 -3 -7 -1 -16 5 -20 6 -3 11 1 11 9 0
10 13 16 38 19 l37 4 -42 1 c-39 2 -43 4 -43 28 0 21 4 25 18 19 12 -4 14 -3
6 5 -7 7 -9 29 -7 53 l5 42 -193 -3 c-137 -2 -195 0 -203 9 -8 9 32 10 167 6
177 -5 177 -5 177 16 0 13 -3 17 -8 11 -9 -15 -266 -18 -257 -4 4 6 -20 10
-64 10 -69 0 -70 0 -73 28 -2 21 -8 26 -23 24 -92 -14 -125 -14 -125 1 0 11 9
16 28 15 15 0 138 3 275 7 l247 8 0 79 c0 77 0 78 26 78 33 0 94 29 116 55 10
11 26 42 37 70 10 27 24 51 31 53 7 3 10 1 7 -4 -9 -15 95 -17 105 -2 7 10 9
10 5 -2 -2 -8 -19 -18 -38 -21 -19 -4 -28 -7 -21 -8 7 0 10 -5 7 -11 -3 -5 -1
-10 4 -10 6 0 11 5 11 11 0 5 5 7 10 4 18 -11 10 -25 -15 -25 -14 0 -25 5 -25
11 0 5 -4 8 -8 5 -12 -7 -14 -120 -4 -183 6 -33 5 -50 -1 -46 -5 3 -7 -3 -4
-13 3 -11 8 -33 12 -51 3 -17 13 -34 21 -37 12 -4 12 -2 4 14 -9 16 -8 20 7
20 13 0 14 3 5 12 -7 7 -12 39 -12 75 l0 63 30 0 c17 0 30 5 30 11 0 6 -6 9
-14 6 -11 -4 -13 6 -12 49 0 30 5 54 9 54 4 0 3 9 -3 20 -9 16 -8 22 5 26 10
4 15 20 15 48 0 30 3 37 10 26 5 -8 7 -23 4 -32 -3 -10 -1 -18 5 -18 6 0 10 6
8 12 -1 9 14 13 51 13 51 0 69 -9 35 -18 -14 -4 -12 -5 5 -6 12 0 22 4 22 9 0
6 5 10 10 10 7 0 9 -15 6 -37 -5 -33 -4 -31 8 10 25 85 25 85 43 49 8 -17 19
-29 24 -26 5 2 11 -7 15 -21 3 -14 13 -25 21 -25 8 0 12 -4 9 -8 -3 -5 1 -9 9
-9 11 0 12 4 4 13 -8 10 -6 19 5 36 9 12 16 29 16 37 0 8 9 24 19 35 15 16 20
38 23 94 1 39 6 72 10 72 5 0 8 -3 8 -7 1 -5 2 -65 3 -135 1 -80 6 -127 12
-125 11 4 23 83 24 169 1 31 6 60 11 63 6 4 7 12 4 18 -4 7 -3 8 1 4 5 -4 14
3 21 15 11 20 12 14 7 -39 -4 -46 -2 -63 6 -63 17 0 41 25 41 42 0 27 25 68
43 68 12 0 17 8 17 28 1 31 31 99 45 100 5 0 12 9 15 18 6 17 7 17 18 -1 10
-18 11 -18 12 -2 0 9 4 17 9 17 5 0 12 17 16 37 6 32 8 35 17 19 5 -10 7 -37
4 -60 -5 -29 -2 -52 8 -71 l15 -29 11 28 c5 15 10 32 10 37 0 5 5 9 11 9 6 0
8 7 5 16 -3 8 -2 13 3 10 28 -18 41 238 40 838 0 302 3 551 6 554 3 3 7 3 10
0 7 -7 8 -716 1 -758 -3 -19 -2 -102 3 -185 l8 -150 1 167 c1 99 6 169 12 173
6 3 10 0 10 -7 0 -9 3 -9 10 2 5 8 10 35 10 60 2 71 17 20 35 -116 8 -65 17
-119 19 -122 3 -2 10 15 16 39 6 23 18 52 26 64 8 12 19 71 25 131 6 60 19
156 29 214 10 58 32 185 49 282 30 172 47 305 72 568 7 69 16 135 20 147 4 12
33 50 63 86 53 63 96 136 96 165 0 8 10 28 23 45 12 18 32 53 44 78 20 45 20
50 7 125 -8 44 -23 133 -35 199 -20 117 -29 150 -29 106 0 -12 -4 -20 -9 -17
-5 4 -12 0 -14 -6 -4 -9 -6 -8 -6 2 -1 9 -10 23 -21 33 -11 9 -20 23 -20 32 0
8 -9 23 -21 34 -12 11 -22 31 -23 45 -1 24 -2 25 -14 9 -12 -16 -12 -13 -6 22
3 22 9 44 12 50 8 12 15 81 8 74 -3 -3 -10 -23 -15 -45 -9 -34 -9 -32 -4 21 3
33 3 57 -1 54 -3 -3 -28 -48 -54 -101 -88 -173 -196 -296 -510 -583 -90 -83
-168 -151 -172 -153 -5 -2 32 39 81 90 50 51 108 120 129 153 22 33 40 55 40
50 0 -6 6 -3 13 5 7 8 24 23 38 32 14 9 49 38 79 65 29 26 57 47 62 45 4 -1 7
4 6 10 -2 7 3 12 10 10 8 -1 11 2 8 7 -3 5 14 27 39 49 59 52 111 121 137 180
11 26 26 61 34 79 8 17 12 38 9 45 -6 15 30 123 47 145 6 7 7 21 3 30 -6 14
-10 9 -20 -22 -13 -39 -13 -39 -11 -7 2 17 6 35 9 39 12 11 8 63 -5 63 -9 0
-9 3 0 12 7 7 12 26 12 43 l0 30 -18 -30 c-10 -17 -29 -57 -41 -89 -24 -65
-81 -166 -93 -166 -10 0 -10 17 0 22 9 4 106 212 120 258 15 50 23 107 14 93
-4 -7 -8 25 -7 71 1 83 0 84 -23 80 -20 -4 -21 -2 -10 10 7 7 17 11 22 8 5 -3
6 2 3 12 -4 10 -7 21 -7 24 -1 4 -7 -4 -15 -18 -10 -17 -14 -20 -15 -9 0 9 9
28 21 42 23 30 38 97 21 97 -17 0 -24 -18 -10 -23 9 -4 8 -6 -2 -6 -8 -1 -21
8 -28 20 -8 12 -9 18 -3 15 5 -4 15 4 22 16 11 21 11 22 -4 10 -13 -11 -15
-10 -13 12 3 22 1 24 -17 15 -14 -8 -18 -8 -13 0 4 6 2 11 -5 11 -7 0 -9 3 -6
6 4 4 -7 23 -25 42 -36 42 -88 147 -88 180 0 12 -4 22 -10 22 -12 0 -40 54
-39 77 0 16 1 16 9 -2 6 -13 9 -15 9 -5 0 8 -6 26 -14 40 l-14 25 -10 -25 c-9
-23 -12 -20 -15 17 -1 7 -5 13 -9 13 -4 0 -9 0 -12 0 -3 0 6 -22 20 -50 40
-79 85 -211 85 -249 l0 -35 -25 35 c-27 36 -94 92 -135 114 -15 7 -53 22 -86
34 -57 19 -65 19 -196 5 -75 -7 -179 -22 -232 -32 -53 -10 -96 -15 -96 -10 0
4 6 8 13 8 20 0 120 31 115 35 -2 2 -32 0 -66 -5 -61 -8 -132 -4 -132 9 0 3
57 8 128 9 70 2 156 8 192 12 56 8 51 8 -35 4 -237 -11 -280 -6 -495 51 -52
14 -113 31 -134 36 -29 8 -36 13 -25 20 12 7 11 9 -2 9 -9 0 -22 6 -28 13 -9
11 -5 13 19 12 40 -2 38 11 -5 36 -42 25 -47 36 -7 15 42 -22 263 -84 380
-106 73 -14 144 -20 245 -20 95 0 162 -5 200 -15 32 -8 64 -15 72 -15 8 0 -9
31 -41 74 -43 56 -67 79 -108 99 -28 14 -99 54 -157 89 -58 35 -132 75 -165
88 -32 13 -83 34 -113 48 -30 13 -83 35 -117 48 -54 20 -64 21 -74 9z m561
-584 c-16 -14 -18 -21 -9 -24 7 -3 4 -5 -7 -4 -38 3 -167 -73 -230 -137 -59
-59 -103 -128 -86 -134 5 -2 6 -12 4 -23 -5 -18 -12 -20 -49 -17 -24 2 -46 -1
-48 -7 -3 -5 -5 -3 -5 6 -1 9 7 19 17 21 14 4 21 18 25 49 7 48 29 100 52 119
8 7 15 17 15 22 0 22 46 51 150 94 71 30 144 52 174 53 18 1 17 0 -3 -18z
m-4022 -479 c-24 -16 -69 -52 -99 -81 l-55 -53 60 51 c33 29 84 64 113 78 l54
26 126 -43 c124 -42 130 -43 289 -48 119 -3 159 -8 151 -16 -10 -10 -152 -8
-380 7 -44 2 -53 1 -41 -8 13 -9 -3 -13 -76 -18 -109 -8 -156 -27 -226 -92
-27 -25 -41 -42 -30 -36 11 5 32 21 48 35 15 14 27 21 27 15 0 -5 24 6 52 26
29 19 55 35 58 35 3 0 6 -17 6 -38 1 -24 12 -54 30 -82 50 -74 54 -84 52 -115
-3 -25 -15 -38 -73 -78 -112 -76 -126 -81 -192 -62 -61 18 -117 50 -148 85
-19 22 -18 22 26 -3 89 -52 208 -82 224 -57 3 6 -4 10 -16 10 -47 0 -181 43
-219 71 -57 41 -80 83 -80 145 0 49 25 132 37 121 3 -3 22 10 43 29 96 89 160
120 249 123 l35 1 -45 -28z m3521 -62 c-11 -7 -6 -10 20 -11 27 -1 29 -3 10
-6 -107 -19 -207 -62 -340 -148 -41 -27 -113 -66 -159 -87 -77 -36 -88 -38
-142 -32 -66 7 -69 19 -8 29 22 4 73 26 112 49 207 122 357 198 399 201 22 1
41 5 44 7 2 3 21 5 42 6 27 1 33 -1 22 -8z m1066 -89 c-32 -32 -76 -72 -97
-87 -100 -73 -158 -120 -206 -166 -29 -27 -53 -47 -53 -44 0 3 16 31 35 61 33
51 38 75 15 75 -4 0 -59 -24 -121 -54 -63 -29 -125 -57 -139 -61 l-25 -7 25
19 c36 28 251 131 318 153 105 35 214 96 272 153 14 13 27 23 29 20 3 -2 -21
-30 -53 -62z m-4206 -1434 c0 -72 19 -163 75 -353 12 -42 13 -75 5 -192 -5
-78 -14 -150 -20 -161 -13 -26 -40 -33 -117 -34 -79 -1 -94 12 -121 106 -32
107 -43 193 -51 387 -8 190 -6 214 16 184 8 -11 13 -46 13 -96 l0 -78 61 0
c48 0 59 3 52 13 -5 6 -17 33 -27 58 -18 50 -80 129 -101 129 -7 0 -18 -7 -25
-15 -17 -20 -30 -10 -30 24 0 51 44 67 198 70 l72 1 0 -43z m3910 -53 c0 -45
-4 -59 -25 -79 -13 -14 -30 -25 -38 -25 -14 0 -27 41 -27 86 0 13 -5 24 -11
24 -8 0 -10 -13 -5 -37 3 -21 6 -55 6 -75 l0 -37 45 13 c25 8 45 12 45 10 0
-3 -20 -13 -45 -24 l-45 -19 -1 -143 c-1 -79 -3 -154 -5 -168 -6 -55 9 -100
49 -148 l40 -47 -53 52 -53 52 1 286 c0 158 2 288 4 289 50 35 70 47 74 44 2
-3 -7 -11 -21 -18 -35 -19 -31 -25 15 -25 46 0 49 2 18 15 -18 7 -19 9 -5 9 9
1 17 8 17 17 0 8 5 12 10 9 6 -3 10 -31 10 -61z m-1223 13 c93 -32 178 -119
230 -234 51 -113 41 -303 -27 -491 -66 -184 -145 -336 -204 -392 -37 -34 -45
-16 -10 23 l29 32 -37 -34 c-22 -20 -33 -38 -28 -41 13 -8 -5 -23 -96 -83 -40
-26 -81 -47 -93 -47 -12 0 -35 -7 -52 -15 -16 -9 -33 -14 -37 -12 -4 3 -18 0
-32 -6 -14 -5 -35 -9 -47 -8 -20 2 -23 -3 -24 -31 l-1 -33 -7 30 -7 30 -7 -34
c-4 -18 -8 -95 -8 -170 -2 -131 -2 -133 -10 -56 -4 44 -5 90 -2 103 10 41 -7
129 -30 156 -22 25 -45 37 -32 16 10 -16 -1 -11 -16 7 -10 11 -10 14 -1 9 18
-11 15 2 -8 26 -11 12 -21 33 -21 47 -2 25 -2 25 -6 3 -3 -13 1 -30 8 -38 6
-8 10 -17 7 -20 -3 -2 -15 15 -26 40 -12 24 -26 47 -32 51 -5 3 -10 11 -10 16
0 6 7 3 16 -6 9 -9 19 -13 22 -10 3 3 0 11 -6 17 -7 7 -12 22 -12 33 0 29 -44
69 -69 62 -15 -4 -22 4 -36 39 -9 24 -20 44 -24 44 -4 0 -7 9 -7 21 0 16 5 19
24 14 15 -4 21 -2 17 5 -3 5 -1 10 5 10 7 0 26 11 42 25 16 14 34 23 39 20 5
-4 6 0 3 8 -3 8 3 21 14 29 12 8 21 28 23 54 l4 42 -24 -19 c-27 -22 -41 -12
-34 25 4 20 -1 24 -44 33 l-48 12 52 -6 c52 -5 53 -4 117 50 36 30 64 57 63
59 -1 2 2 0 8 -4 5 -5 19 -8 30 -8 22 0 45 -35 45 -68 0 -10 -23 -40 -50 -66
-50 -49 -51 -50 -48 -105 3 -53 5 -56 31 -59 15 -2 42 6 61 17 40 25 82 26
204 5 82 -14 93 -14 121 0 44 23 54 48 49 130 -6 107 -41 183 -100 221 -89 57
-160 95 -169 89 -5 -3 -9 -41 -9 -85 0 -88 -14 -103 -47 -52 -16 23 -18 49
-16 192 1 160 2 165 25 182 12 10 20 20 17 23 -7 8 -77 -51 -91 -77 -6 -12
-11 -49 -11 -82 l0 -60 -6 55 -6 54 -33 -39 c-22 -27 -16 -14 17 37 28 43 67
90 87 105 19 15 42 42 50 59 19 40 73 96 85 88 5 -3 8 0 7 7 -2 7 15 22 36 35
32 18 51 22 105 19 36 -1 85 -9 108 -18z m618 -1604 l-6 -51 -55 1 c-51 0 -55
2 -50 21 3 12 6 44 6 72 0 58 23 100 40 74 5 -8 10 -29 10 -46 0 -52 12 -94
26 -94 23 0 26 36 20 268 -2 125 -2 245 2 267 9 50 15 -442 7 -512z m355 -58
l10 -70 -35 -30 c-26 -22 -33 -33 -24 -42 8 -8 8 -13 0 -18 -6 -3 -10 -3 -9 2
2 4 -1 8 -7 8 -5 0 -9 -4 -7 -8 1 -5 -2 -6 -8 -2 -6 4 -17 1 -25 -5 -8 -6 -19
-9 -24 -6 -6 4 -15 -3 -21 -14 -8 -14 -17 -19 -28 -15 -13 5 -14 3 -5 -5 6 -7
26 -16 45 -20 l33 -9 -40 2 c-83 2 -85 -20 -8 -92 l58 -53 -62 47 c-35 25 -63
50 -63 54 0 4 -16 16 -35 26 -19 11 -32 21 -30 23 2 3 15 -2 29 -11 28 -19 36
-14 36 24 0 37 -15 44 -47 24 -14 -9 -23 -12 -19 -7 3 6 1 12 -6 15 -7 2 -6 3
3 2 9 -1 21 6 28 17 11 18 10 18 -9 8 -29 -16 -31 -12 -18 39 16 62 58 67 57
6 0 -18 -1 -17 -14 5 -10 18 -14 20 -15 8 0 -9 12 -30 26 -47 l26 -31 25 20
c32 25 43 18 18 -10 -10 -11 -15 -20 -11 -20 4 0 19 14 33 30 13 17 30 30 35
30 6 0 3 -10 -8 -22 l-19 -23 22 19 c12 10 21 23 20 30 -1 6 6 10 16 10 10 -1
16 1 13 4 -4 3 3 16 15 28 20 21 20 25 8 139 -10 100 -10 118 2 126 11 7 15
-4 22 -54 4 -34 12 -93 17 -132z m-312 -473 c23 -13 40 -27 37 -33 -4 -5 -1
-8 7 -7 8 2 13 -7 13 -27 0 -26 -3 -30 -24 -27 -13 1 -67 26 -120 54 l-96 52
44 8 c24 4 46 9 48 12 6 6 43 -7 91 -32z m-397 -94 c2 -23 2 -23 6 0 l5 24 24
-23 c25 -23 25 -41 2 -102 -14 -36 -36 -47 -91 -47 -104 0 -131 87 -44 140 37
23 21 26 -26 6 -37 -15 -63 -42 -70 -71 -4 -16 -5 -15 -6 6 -2 46 69 88 152
89 42 0 47 -2 48 -22z m-344 -2944 c-4 -4 -15 -12 -26 -18 -148 -83 -266 -169
-361 -265 -58 -59 -118 -123 -133 -144 -16 -21 -31 -36 -34 -33 -3 2 -25 -21
-51 -52 -25 -31 -50 -60 -56 -64 -6 -4 -8 -10 -4 -13 3 -3 15 5 26 19 11 15
23 26 28 26 4 0 16 8 27 18 18 15 19 15 11 0 -5 -9 -36 -40 -69 -68 -85 -74
-145 -138 -145 -155 0 -7 -4 -17 -10 -20 -6 -4 -6 3 0 21 6 15 8 29 5 32 -3 3
-5 0 -5 -6 0 -6 -9 -16 -21 -22 -18 -10 -17 -7 7 32 35 57 55 79 65 72 5 -3 9
2 9 10 0 8 10 25 23 38 12 13 42 50 67 83 50 66 201 222 240 248 14 9 17 14 7
11 -12 -4 -7 5 13 25 18 17 36 28 42 25 6 -4 8 -2 5 3 -8 13 151 117 253 167
70 34 102 45 87 30z"/>
<path d="M5145 6581 c-107 -49 -136 -110 -100 -210 8 -22 10 -41 6 -41 -4 0
-16 21 -25 48 l-16 47 4 -44 c4 -44 8 -49 91 -114 17 -13 46 -33 65 -44 30
-18 37 -19 48 -7 11 12 10 14 -5 14 -14 0 -12 3 7 17 46 30 80 67 80 85 0 10
5 27 12 37 11 17 14 18 35 4 13 -8 23 -22 23 -29 0 -8 5 -14 12 -14 6 0 9 -3
6 -6 -4 -3 0 -20 8 -39 25 -61 25 -90 0 -136 -19 -34 -24 -58 -24 -107 1 -35
4 -58 8 -52 5 7 10 2 14 -14 7 -29 -9 -70 -24 -61 -6 4 -6 -3 0 -19 6 -16 6
-27 0 -31 -6 -4 -10 -3 -10 2 0 12 -20 -20 -20 -32 0 -5 5 -3 11 5 9 12 10 12
5 -3 -3 -10 -6 -20 -6 -23 0 -2 -8 0 -17 3 -12 5 -15 2 -11 -8 4 -11 -3 -16
-31 -17 -20 -2 -49 -7 -66 -12 -16 -5 -49 -14 -72 -21 -33 -9 -40 -15 -33 -28
13 -24 23 -55 22 -63 -1 -4 17 2 41 12 23 11 54 20 68 20 58 0 162 144 210
289 12 37 27 73 34 81 6 8 12 30 14 49 1 19 9 66 17 104 19 83 14 125 -25 212
-38 82 -92 136 -160 158 -74 24 -126 21 -196 -12z"/>
<path d="M3520 9385 c0 -9 -5 -13 -10 -10 -11 7 18 -73 49 -133 23 -46 40 -61
117 -103 l61 -33 63 49 c56 43 61 49 42 56 -11 4 -69 43 -129 87 -59 44 -119
83 -133 87 -14 3 -33 9 -42 11 -12 4 -18 0 -18 -11z"/>
<path d="M1970 7754 c0 -14 7 -27 15 -30 8 -4 13 -9 10 -14 -7 -12 47 -57 90
-75 61 -25 169 -45 243 -45 37 0 135 9 217 20 184 24 213 25 238 3 19 -17 20
-17 14 0 -5 14 -1 17 26 17 45 -1 74 -20 109 -71 20 -29 28 -35 22 -19 -4 14
-8 32 -9 40 -1 8 -7 25 -13 37 -11 20 -10 22 5 16 16 -5 16 -4 3 9 -8 8 -41
24 -73 36 -83 31 -166 29 -306 -8 -133 -35 -281 -41 -366 -15 -36 11 -40 13
-15 10 51 -8 158 -15 135 -9 -11 3 -56 14 -100 25 -44 12 -117 38 -162 59
l-83 39 0 -25z"/>
<path d="M7395 7242 c9 -42 -5 -169 -16 -151 -6 9 -9 -1 -9 -28 0 -24 -4 -43
-8 -43 -4 0 -16 -35 -26 -77 -10 -43 -24 -104 -32 -135 -15 -66 -79 -197 -136
-280 -43 -65 -62 -79 -27 -20 55 91 121 216 134 253 30 83 46 202 39 283 -7
77 -7 78 -20 46 -24 -55 -115 -203 -159 -255 -74 -89 -73 -84 -99 -330 -42
-389 -47 -426 -72 -550 -35 -174 -64 -378 -64 -447 0 -53 2 -59 15 -48 8 7 15
22 16 34 0 20 1 21 9 1 8 -19 9 -19 9 3 1 13 5 20 11 17 6 -4 8 -16 5 -28 -5
-17 -4 -19 4 -7 6 8 8 25 5 36 -3 12 2 36 11 54 11 21 15 44 11 65 -6 32 9 85
25 85 6 0 18 60 20 103 0 9 5 17 10 17 6 0 7 5 4 10 -4 7 2 9 19 4 21 -5 25
-3 20 10 -3 8 -9 15 -12 14 -4 -1 -17 4 -30 11 -29 16 -26 52 6 66 12 5 23 17
23 25 1 8 5 2 9 -15 7 -29 8 -29 9 -4 2 45 30 111 70 163 53 71 74 113 56 113
-7 0 -11 -6 -8 -13 2 -6 0 -14 -5 -18 -5 -3 -7 9 -5 27 3 18 8 93 11 167 8
159 22 138 25 -37 l2 -111 37 59 c21 32 45 74 54 91 26 50 64 179 62 213 -1
27 -1 28 -5 5 -12 -62 -85 -260 -97 -260 -1 0 8 33 20 73 13 39 33 104 45 142
16 53 23 104 26 210 4 110 10 157 29 218 13 43 24 90 23 105 -1 19 -4 13 -10
-17 -14 -72 -15 -69 -14 47 0 81 -4 114 -14 124 -11 11 -12 8 -6 -20z"/>
<path d="M4440 4154 c0 -5 7 -18 15 -28 8 -10 12 -23 9 -27 -3 -5 0 -9 5 -9 9
0 131 -238 131 -255 0 -11 135 -280 142 -283 4 -2 3 -14 -2 -27 -7 -18 -5 -27
7 -37 15 -11 16 -11 10 5 -4 11 -2 17 8 17 8 0 15 -5 15 -12 0 -6 3 -8 7 -5
12 13 41 -49 36 -79 -3 -22 -2 -25 6 -14 5 8 14 11 18 6 4 -4 -1 -14 -11 -22
-16 -11 -17 -17 -8 -26 9 -9 12 -8 12 5 0 9 7 17 15 17 10 0 15 -10 15 -34 0
-52 12 -126 20 -126 5 0 6 17 4 38 -6 46 9 74 28 53 11 -11 11 -13 -1 -6 -12
7 -13 -1 -8 -45 4 -36 19 -75 47 -121 23 -38 43 -69 45 -69 2 0 3 9 2 19 0 11
-4 19 -7 19 -18 -2 -23 4 -11 11 9 6 16 28 17 53 2 35 -4 52 -33 96 -20 28
-40 52 -44 52 -4 0 -10 12 -13 26 -5 18 -12 24 -22 20 -9 -3 -12 -2 -9 4 7 11
-29 76 -44 82 -5 2 -25 35 -45 73 -20 39 -50 90 -66 115 -48 73 -122 229 -114
242 5 7 3 8 -6 3 -10 -6 -12 -4 -6 11 4 10 4 15 0 11 -4 -4 -36 46 -71 112
-56 105 -94 160 -93 135z"/>
<path d="M5690 4019 c0 -16 16 -40 46 -69 59 -58 67 -79 65 -168 -1 -49 2 -72
9 -67 6 4 10 -5 10 -24 0 -16 5 -33 11 -36 6 -4 0 -20 -17 -42 -14 -19 -24
-37 -21 -39 3 -3 19 15 36 39 17 25 50 62 73 83 24 20 35 34 26 31 -10 -4 -18
-2 -18 3 0 6 -5 10 -11 10 -6 0 -9 -5 -7 -12 5 -15 -42 -69 -53 -62 -5 3 -9
11 -8 17 0 9 2 9 6 0 3 -10 9 -9 20 3 13 13 14 17 3 24 -11 7 -11 14 0 39 7
17 17 31 22 31 6 0 3 -12 -7 -26 -12 -19 -14 -29 -6 -37 8 -8 11 -6 11 6 0 9
9 22 20 29 14 9 20 24 20 51 0 23 -4 36 -10 32 -5 -3 -10 -14 -10 -24 0 -10
-7 -18 -15 -18 -18 0 -20 18 -3 35 9 9 9 12 -2 12 -10 1 -6 9 11 23 27 22 52
76 30 63 -6 -4 -14 0 -17 8 -3 9 -17 16 -30 16 -18 0 -24 6 -25 23 -1 12 -2
27 -4 32 -1 6 -3 16 -3 23 -2 9 -7 10 -19 3 -10 -5 -40 -5 -66 -1 -41 6 -47 5
-42 -9 3 -11 0 -10 -10 3 -15 19 -15 19 -15 -5z"/>
<path d="M4697 3527 c-9 -25 -9 -29 2 -22 5 3 12 1 16 -5 3 -5 1 -10 -4 -10
-6 0 -11 -7 -11 -15 0 -8 -4 -15 -10 -15 -5 0 -10 -7 -10 -15 0 -11 5 -10 21
6 26 26 39 16 14 -11 -16 -18 -17 -33 -11 -159 9 -201 24 -221 19 -26 -3 105
-1 155 6 145 5 -8 10 -76 12 -150 3 -146 6 -170 22 -170 6 0 8 23 4 63 -17
167 -20 260 -9 253 18 -11 14 9 -9 49 -12 20 -21 47 -21 62 0 16 -3 21 -8 13
-6 -9 -9 -8 -12 6 -3 18 -4 18 -11 1z"/>
<path d="M3934 1348 c-40 -44 -65 -88 -58 -99 4 -8 3 -9 -4 -5 -6 4 -16 -4
-23 -16 -11 -20 -10 -21 3 -11 8 7 18 10 21 6 4 -3 7 -2 7 3 0 5 46 7 107 6
90 -3 105 -2 96 10 -10 11 -8 14 8 15 10 1 19 -5 19 -13 0 -8 5 -14 10 -14 6
0 10 7 10 16 0 10 6 14 15 10 8 -3 15 -1 15 4 0 12 -17 14 -83 11 -29 -1 -46
2 -43 8 3 5 0 12 -6 15 -7 3 1 4 17 1 17 -2 24 -2 17 1 -6 3 -10 10 -6 15 3 5
-10 9 -28 9 -23 0 -38 8 -53 26 l-20 25 -21 -23z"/>
<path d="M3800 1140 c-8 -5 -12 -10 -7 -10 4 0 -2 -9 -14 -21 -11 -11 -18 -27
-15 -35 3 -7 1 -13 -3 -11 -13 3 -98 -126 -93 -142 3 -8 0 -11 -6 -7 -15 9
-21 -15 -10 -37 5 -10 7 -21 4 -25 -3 -3 -6 0 -6 6 0 7 -7 12 -16 12 -10 0
-14 -6 -10 -15 3 -8 1 -25 -5 -37 -8 -20 -9 -19 -4 7 5 29 5 29 -10 10 -9 -11
-13 -25 -11 -32 3 -7 0 -15 -6 -19 -7 -4 -8 -3 -4 4 4 7 5 12 2 12 -7 0 -27
-37 -31 -60 -2 -10 3 -21 11 -24 9 -3 12 -1 9 4 -3 6 -3 15 1 22 5 8 10 6 16
-8 6 -14 7 -11 3 11 l-6 30 22 -32 c25 -39 31 -40 44 -10 8 18 18 22 56 22 40
-1 44 1 32 13 -8 9 -24 12 -41 8 -22 -5 -24 -4 -10 4 22 14 61 15 116 5 27 -5
42 -4 42 3 0 5 -10 8 -22 6 -22 -4 -21 -4 1 6 14 6 27 7 30 2 3 -5 20 -12 36
-16 19 -4 25 -3 17 2 -17 12 6 22 49 22 19 0 32 6 36 18 9 25 24 32 52 25 17
-4 28 0 37 12 12 16 13 15 9 -13 -2 -17 -6 -35 -9 -40 -3 -5 1 -9 9 -9 8 0 15
5 16 11 8 78 6 86 -17 86 -13 0 -25 4 -28 9 -5 8 35 31 55 31 6 0 17 7 25 15
14 13 12 15 -18 16 l-33 1 29 8 c16 5 33 7 38 4 12 -8 10 -34 -3 -34 -8 0 -8
-4 -1 -13 16 -19 8 -65 -18 -99 -12 -16 -19 -32 -16 -35 3 -4 8 -4 10 -2 7 9
136 264 136 270 0 10 -129 19 -293 21 -123 1 -150 4 -156 17 -5 9 -6 22 -4 29
6 14 3 15 -17 2z"/>
</g>
</svg>
